<svg version="1.1" id="Layer_1" xmlns="http://www.w3.org/2000/svg" xmlns:xlink="http://www.w3.org/1999/xlink" x="0px" y="0px"
	 width="100%" viewBox="0 0 833 830" enable-background="new 0 0 833 830" xml:space="preserve">
<path fill="#000000" opacity="1.000000" stroke="none" 
	d="
M558.000000,831.000000 
	C372.000061,831.000000 186.500107,831.000000 1.000124,831.000000 
	C1.000083,554.333496 1.000083,277.666931 1.000041,1.000310 
	C278.666443,1.000207 556.332886,1.000207 833.999512,1.000103 
	C833.999634,277.666351 833.999634,554.332703 833.999817,830.999512 
	C742.166687,831.000000 650.333313,831.000000 558.000000,831.000000 
M358.510437,245.134491 
	C358.087463,245.847229 357.664490,246.559982 357.050049,247.054077 
	C357.050049,247.054077 357.269318,247.244827 356.555023,247.122314 
	C354.669922,249.326675 352.784851,251.531052 350.631805,254.347748 
	C349.039215,255.878769 347.446655,257.409790 345.139252,258.917206 
	C344.414764,259.918488 343.690247,260.919739 342.726624,262.549469 
	C339.821625,265.367981 336.916626,268.186523 333.306305,271.000336 
	C330.095612,273.070404 326.711853,274.926941 323.761292,277.318054 
	C322.617340,278.245087 322.453094,280.381012 321.858154,282.675079 
	C313.843842,298.943848 305.795959,315.196198 297.835022,331.491058 
	C295.338257,336.601593 295.629669,338.301727 301.113434,340.194031 
	C307.766144,342.489685 314.740631,344.554291 321.697449,345.065887 
	C328.386322,345.557739 335.255341,344.122986 342.000305,343.205048 
	C351.885590,341.859772 361.700623,339.959412 371.605377,338.811676 
	C376.958221,338.191406 382.129150,339.203491 386.248291,343.527924 
	C394.138397,351.811127 401.879150,351.735840 409.581268,343.132935 
	C413.223541,339.064697 416.663452,334.651978 419.308960,329.901825 
	C421.819733,325.393646 424.554657,325.610718 428.225983,327.710022 
	C435.081879,331.630310 440.216248,337.100677 443.158051,345.147766 
	C443.782074,345.760803 444.406067,346.373840 445.585907,347.296570 
	C446.713745,348.260803 447.841583,349.225006 449.144531,350.942993 
	C454.826874,353.292908 458.581055,352.387970 461.326111,347.493530 
	C462.873871,345.991211 464.421631,344.488892 466.691162,342.912781 
	C467.057434,342.129669 467.423706,341.346527 467.927032,340.064148 
	C468.296112,339.714203 468.665192,339.364258 469.739868,338.969910 
	C470.841644,337.004730 471.943420,335.039551 472.999420,333.015289 
	C472.999420,333.015289 473.070435,333.038727 473.768066,332.996643 
	C475.182373,330.672607 476.596710,328.348572 478.204315,325.431763 
	C479.328674,324.552948 480.453033,323.674164 482.383118,322.960632 
	C486.611267,321.140961 490.839417,319.321259 495.662415,317.147583 
	C496.118561,317.139343 496.574707,317.131104 497.529938,317.644897 
	C499.367676,317.195770 501.205383,316.746613 503.764374,316.036896 
	C504.522095,316.073029 505.279785,316.109161 506.559784,316.696838 
	C509.386749,316.564636 512.213684,316.432434 515.691040,316.157745 
	C516.103882,316.296448 516.516785,316.435120 517.184631,317.214661 
	C520.824036,318.126312 524.463501,319.037964 528.555786,319.994080 
	C528.555786,319.994080 528.973022,320.175720 529.121765,320.847412 
	C531.785278,322.242279 534.448730,323.637146 538.013550,325.504059 
	C537.738098,319.401520 534.833252,317.610992 529.921021,317.213196 
	C529.634705,316.999634 529.348328,316.786072 528.954956,315.898895 
	C528.052246,315.249573 527.233826,314.397369 526.233948,313.981812 
	C513.808960,308.817444 500.951660,308.289307 488.040558,311.344086 
	C484.135681,312.267975 480.653107,314.976562 476.786682,317.187073 
	C476.786682,317.187073 476.415192,317.203613 475.725067,317.082886 
	C475.141052,317.670258 474.557068,318.257629 473.831207,319.190125 
	C473.831207,319.190125 473.459595,319.223846 472.711060,319.127777 
	C472.205658,319.829163 471.700256,320.530548 471.054138,321.075043 
	C471.054138,321.075043 471.228394,321.193634 470.437622,321.079651 
	C466.853424,321.074982 466.952209,323.571442 466.998627,326.008240 
	C466.998627,326.008240 467.067810,326.045502 466.366364,326.045074 
	C464.521637,327.837891 462.750275,329.714844 460.814240,331.402954 
	C458.164459,333.713501 455.389526,335.880554 452.502014,337.969910 
	C452.502014,337.969910 452.448273,337.759796 452.751160,337.019257 
	C451.853943,335.675842 450.956757,334.332428 449.742859,332.847961 
	C449.742859,332.847961 449.753906,332.501434 449.903534,331.723022 
	C449.311096,328.919952 448.613129,326.207489 444.403198,325.737762 
	C442.921936,324.188263 441.440674,322.638763 439.913544,320.367401 
	C439.148438,320.060852 438.383331,319.754303 437.726044,319.228241 
	C437.726044,319.228241 437.562836,319.410370 437.776520,318.636566 
	C437.403809,317.857391 437.031067,317.078217 436.658356,316.299042 
	C436.037445,316.723419 435.416534,317.147797 434.140717,317.389282 
	C433.780457,317.119934 433.420197,316.850616 432.926178,315.927185 
	C430.604492,314.052734 428.435425,311.593872 424.173187,313.992249 
	C422.441315,313.966614 420.709412,313.941010 418.581024,313.387390 
	C417.044250,314.200714 415.507477,315.014069 413.768188,316.163055 
	C413.768188,316.163055 413.376801,316.184937 412.644653,316.086426 
	C409.543365,319.933380 406.442047,323.780334 403.289764,327.911133 
	C403.289764,327.911133 403.016571,328.003479 402.291382,328.019073 
	C399.199402,331.507690 396.169952,328.121918 393.037048,327.979797 
	C393.037048,327.979797 393.055267,327.895172 393.001190,327.185425 
	C388.873444,322.764191 383.796570,321.622437 377.164734,323.039490 
	C375.098969,322.983887 373.033234,322.928284 370.425568,322.317749 
	C366.049164,322.895905 361.544373,322.999023 357.320374,324.140991 
	C344.437531,327.623749 331.680420,331.570221 318.815155,335.121765 
	C317.705536,335.428070 316.158936,334.151642 315.081207,333.190979 
	C315.540436,333.036407 315.999695,332.881836 317.242126,332.921448 
	C318.830170,331.959045 320.418243,330.996674 322.378754,329.593750 
	C323.078430,329.309479 323.778107,329.025238 325.269684,328.936523 
	C333.572235,325.028717 341.906219,321.185516 350.155457,317.168274 
	C352.255371,316.145660 354.086273,314.570618 356.425354,312.707733 
	C357.079926,311.823181 357.734467,310.938629 359.014465,309.922272 
	C359.351868,308.968323 359.689240,308.014404 360.273376,306.445465 
	C362.191101,304.634216 364.108795,302.822937 366.758331,301.053101 
	C367.512054,300.050171 368.265808,299.047241 369.167725,297.550079 
	C369.449554,297.368683 369.731415,297.187286 370.758209,297.043152 
	C371.844269,295.707733 372.930359,294.372345 374.266479,292.415131 
	C380.862335,285.951233 387.458191,279.487335 394.809509,273.043854 
	C395.343536,272.210480 395.877563,271.377136 396.515625,270.508545 
	C396.515625,270.508545 396.564362,270.410126 397.252838,270.681915 
	C397.844391,269.809052 398.435974,268.936157 399.299713,267.450531 
	C403.566711,263.314423 407.833710,259.178284 412.821960,255.069397 
	C413.557617,254.068451 414.293304,253.067490 415.308685,251.457504 
	C422.912537,243.988297 430.516357,236.519104 438.837433,229.077667 
	C439.570282,228.079666 440.303162,227.081665 441.296936,225.464645 
	C450.913452,215.996078 460.529999,206.527527 470.857880,197.077591 
	C471.588043,196.089859 472.318207,195.102127 473.222260,193.603928 
	C473.519135,193.417450 473.816040,193.230972 474.709106,193.018661 
	C474.487000,192.339905 474.264923,191.661133 473.508972,190.719955 
	C473.020233,190.112625 472.531494,189.505310 472.101776,188.182312 
	C474.525269,185.152023 477.101044,182.227737 479.312897,179.050140 
	C480.560181,177.258255 481.208038,175.049118 481.990326,172.278046 
	C481.997009,171.517776 482.003723,170.757492 482.474945,169.666885 
	C481.979401,169.112930 481.483887,168.558990 480.396545,167.697571 
	C477.949493,165.086548 475.502441,162.475525 473.084930,159.124435 
	C472.681793,158.056152 472.469788,156.857086 471.843353,155.941589 
	C468.674896,151.310898 462.500336,150.807251 459.680634,155.502777 
	C457.082642,157.986008 454.484619,160.469223 451.156799,162.885269 
	C448.257629,160.974915 445.361786,159.059479 442.457947,157.156265 
	C440.896393,156.132797 439.321045,155.130341 437.191040,153.899902 
	C436.437744,152.982483 435.684479,152.065048 434.950317,150.447311 
	C431.152649,147.078522 429.424896,148.168106 427.689606,155.490158 
	C424.442749,158.652847 421.195923,161.815521 417.213776,164.956863 
	C415.801483,166.620270 414.389191,168.283676 412.721191,170.522141 
	C411.780823,171.334076 410.840485,172.146027 409.149811,172.937225 
	C408.611023,173.771744 408.072235,174.606262 407.440979,175.446945 
	C407.440979,175.446945 407.433807,175.539352 406.742798,175.281067 
	C406.145508,176.148758 405.548187,177.016449 404.691986,178.497986 
	C402.756409,180.316101 400.820801,182.134232 398.154907,183.916519 
	C397.090942,185.249008 396.026947,186.581482 394.719513,188.514816 
	C393.461609,189.668640 392.203705,190.822464 390.208923,191.933426 
	C388.803406,193.616592 387.397919,195.299759 385.756866,197.527054 
	C385.148804,198.008392 384.540710,198.489731 383.204681,198.934647 
	C382.460907,199.942047 381.717133,200.949432 381.000000,202.000000 
	C381.000000,202.000000 380.956604,201.973587 380.214508,201.926331 
	C379.136810,203.270233 378.059113,204.614151 376.738983,206.583344 
	C373.829620,209.510651 370.815552,212.344360 368.068115,215.416443 
	C367.116486,216.480515 366.826599,218.136398 366.136047,220.222778 
	C367.156555,222.479309 368.131195,222.441711 369.548859,219.665085 
	C374.260681,216.741989 378.972504,213.818893 384.432434,210.902374 
	C384.907654,210.168823 385.382874,209.435272 386.109955,208.105972 
	C388.638489,205.687958 391.166992,203.269958 394.455231,200.912003 
	C395.262207,199.825745 396.069183,198.739487 397.148010,197.078140 
	C401.304016,192.989441 405.460022,188.900742 410.341675,184.986557 
	C412.632172,185.536331 413.698822,186.727798 411.815765,188.743103 
	C408.250610,192.558701 404.370575,196.090149 400.938782,200.017044 
	C398.419678,202.899521 396.406769,206.224350 393.987152,209.882645 
	C393.562378,210.238129 393.137573,210.593613 391.993561,210.911591 
	C387.780579,211.925507 385.339874,214.502609 384.739777,219.453354 
	C384.142639,219.961456 383.545502,220.469543 382.195007,220.946930 
	C381.627808,221.774307 381.060638,222.601685 380.407349,223.418961 
	C380.407349,223.418961 380.416992,223.505066 379.700592,223.253311 
	C378.466370,224.834488 377.232178,226.415680 376.000000,228.000000 
	C376.000000,228.000000 375.996796,227.998047 375.335052,227.998627 
	C374.886658,228.660095 374.438232,229.321579 374.000000,230.000122 
	C374.000000,230.000122 373.983093,229.989777 373.288971,229.990494 
	C369.903168,233.751282 366.517334,237.512085 362.961731,241.789703 
	C362.412933,242.244263 361.864136,242.698822 360.584930,243.110870 
	C360.120270,243.817093 359.655640,244.523331 359.063843,245.071640 
	C359.063843,245.071640 359.227722,245.191010 358.510437,245.134491 
M684.410583,532.086121 
	C695.470337,504.766571 706.556763,477.457764 717.575928,450.121826 
	C721.645020,440.027435 716.482117,432.265289 705.676086,432.151581 
	C698.013184,432.070953 690.348755,432.113556 682.685059,432.133881 
	C673.428772,432.158417 670.767944,434.029816 667.371094,442.645569 
	C646.913696,494.535034 626.449097,546.421631 605.959106,598.298218 
	C604.978271,600.781372 603.733459,603.160156 602.024475,606.857910 
	C584.991394,563.977539 568.505676,522.475159 551.742798,480.275116 
	C554.369324,480.157959 556.127869,480.013458 557.886536,480.011383 
	C573.713867,479.992828 589.541321,480.035828 605.368469,479.984039 
	C614.304260,479.954803 618.576355,475.771820 618.723083,466.862610 
	C618.841064,459.700684 618.835571,452.533752 618.720154,445.371704 
	C618.576721,436.466187 614.260010,432.150421 605.431519,432.140472 
	C569.778381,432.100311 534.125244,432.084442 498.472198,432.146301 
	C487.789642,432.164856 482.779022,439.637207 486.719360,449.620605 
	C490.996765,460.458160 495.497406,471.207397 499.865967,482.009186 
	C525.336914,544.989319 550.816284,607.966064 576.230774,670.968994 
	C578.576721,676.784729 582.601440,679.645569 588.842773,679.613586 
	C597.839111,679.567444 606.835815,679.611450 615.832397,679.611145 
	C621.819885,679.610901 625.840454,676.900085 628.119385,671.252869 
	C646.750183,625.086121 665.449585,578.947083 684.410583,532.086121 
M271.524139,662.027344 
	C273.286682,664.451416 275.243958,666.759338 276.772217,669.323059 
	C280.214752,675.098267 285.128448,677.363708 291.816895,677.049500 
	C299.463196,676.690308 307.139160,676.976440 314.802185,676.956909 
	C324.962433,676.931091 329.145569,672.804260 329.156799,662.773499 
	C329.172668,648.613464 329.161133,634.453491 329.160156,620.293457 
	C329.156128,562.154114 329.161957,504.014832 329.137329,445.875519 
	C329.133301,436.358917 324.945557,432.207642 315.412689,432.145355 
	C308.749420,432.101807 302.085693,432.127411 295.422150,432.138000 
	C284.807678,432.154846 281.056763,435.906799 281.052765,446.628204 
	C281.035309,493.439453 281.039825,540.250671 281.036407,587.061951 
	C281.036255,588.939392 281.036377,590.816772 281.036377,593.944580 
	C279.393372,592.099976 278.696442,591.433960 278.133698,590.669128 
	C240.831055,539.969727 203.488571,489.299347 166.332870,438.492432 
	C162.992081,433.924225 159.124054,432.009613 153.710739,432.093048 
	C145.549896,432.218842 137.384964,432.184021 129.223022,432.098175 
	C123.749779,432.040619 118.808983,433.032410 116.175163,438.489441 
	C113.592690,443.840027 115.593651,448.332001 118.863319,452.807129 
	C169.653519,522.322571 220.371475,591.890686 271.524139,662.027344 
M163.270660,654.467896 
	C163.273972,638.160400 163.342224,621.852478 163.253418,605.545471 
	C163.208450,597.286255 158.700424,592.673828 150.744461,592.576599 
	C142.924683,592.481018 135.101685,592.473877 127.282204,592.581116 
	C119.747154,592.684448 115.115906,597.224854 115.077530,604.757202 
	C114.975792,624.725098 114.962532,644.694092 115.055794,664.661987 
	C115.090881,672.173340 119.772751,676.802002 127.243683,676.917480 
	C135.229080,677.040894 143.219101,677.034424 151.204758,676.920654 
	C158.054840,676.823059 162.794479,672.259766 163.201828,665.434753 
	C163.399796,662.117859 163.258224,658.780823 163.270660,654.467896 
z"/>
<path fill="#FBFBFB" opacity="1.000000" stroke="none" 
	d="
M684.269348,532.442871 
	C665.449585,578.947083 646.750183,625.086121 628.119385,671.252869 
	C625.840454,676.900085 621.819885,679.610901 615.832397,679.611145 
	C606.835815,679.611450 597.839111,679.567444 588.842773,679.613586 
	C582.601440,679.645569 578.576721,676.784729 576.230774,670.968994 
	C550.816284,607.966064 525.336914,544.989319 499.865967,482.009186 
	C495.497406,471.207397 490.996765,460.458160 486.719360,449.620605 
	C482.779022,439.637207 487.789642,432.164856 498.472198,432.146301 
	C534.125244,432.084442 569.778381,432.100311 605.431519,432.140472 
	C614.260010,432.150421 618.576721,436.466187 618.720154,445.371704 
	C618.835571,452.533752 618.841064,459.700684 618.723083,466.862610 
	C618.576355,475.771820 614.304260,479.954803 605.368469,479.984039 
	C589.541321,480.035828 573.713867,479.992828 557.886536,480.011383 
	C556.127869,480.013458 554.369324,480.157959 551.742798,480.275116 
	C568.505676,522.475159 584.991394,563.977539 602.024475,606.857910 
	C603.733459,603.160156 604.978271,600.781372 605.959106,598.298218 
	C626.449097,546.421631 646.913696,494.535034 667.371094,442.645569 
	C670.767944,434.029816 673.428772,432.158417 682.685059,432.133881 
	C690.348755,432.113556 698.013184,432.070953 705.676086,432.151581 
	C716.482117,432.265289 721.645020,440.027435 717.575928,450.121826 
	C706.556763,477.457764 695.470337,504.766571 684.269348,532.442871 
z"/>
<path fill="#FBFBFB" opacity="1.000000" stroke="none" 
	d="
M271.315155,661.737000 
	C220.371475,591.890686 169.653519,522.322571 118.863319,452.807129 
	C115.593651,448.332001 113.592690,443.840027 116.175163,438.489441 
	C118.808983,433.032410 123.749779,432.040619 129.223022,432.098175 
	C137.384964,432.184021 145.549896,432.218842 153.710739,432.093048 
	C159.124054,432.009613 162.992081,433.924225 166.332870,438.492432 
	C203.488571,489.299347 240.831055,539.969727 278.133698,590.669128 
	C278.696442,591.433960 279.393372,592.099976 281.036377,593.944580 
	C281.036377,590.816772 281.036255,588.939392 281.036407,587.061951 
	C281.039825,540.250671 281.035309,493.439453 281.052765,446.628204 
	C281.056763,435.906799 284.807678,432.154846 295.422150,432.138000 
	C302.085693,432.127411 308.749420,432.101807 315.412689,432.145355 
	C324.945557,432.207642 329.133301,436.358917 329.137329,445.875519 
	C329.161957,504.014832 329.156128,562.154114 329.160156,620.293457 
	C329.161133,634.453491 329.172668,648.613464 329.156799,662.773499 
	C329.145569,672.804260 324.962433,676.931091 314.802185,676.956909 
	C307.139160,676.976440 299.463196,676.690308 291.816895,677.049500 
	C285.128448,677.363708 280.214752,675.098267 276.772217,669.323059 
	C275.243958,666.759338 273.286682,664.451416 271.315155,661.737000 
z"/>
<path fill="#F8F8F8" opacity="1.000000" stroke="none" 
	d="
M452.448273,337.759796 
	C452.448273,337.759796 452.502014,337.969910 452.573853,338.372864 
	C453.817993,341.558411 455.432281,340.570129 456.701630,339.039124 
	C460.237427,334.774597 463.622925,330.385437 467.067810,326.045502 
	C467.067810,326.045502 466.998627,326.008240 467.335693,325.928223 
	C468.857941,324.296692 470.043182,322.745148 471.228394,321.193634 
	C471.228394,321.193634 471.054138,321.075043 471.440369,321.093201 
	C472.370941,320.482208 472.915283,319.853027 473.459595,319.223846 
	C473.459595,319.223846 473.831207,319.190125 474.216614,319.010406 
	C475.206390,318.288330 475.810791,317.745972 476.415192,317.203613 
	C476.415192,317.203613 476.786682,317.187073 477.255249,317.011597 
	C480.212250,315.910217 482.657104,314.837799 485.196320,314.082581 
	C500.105316,309.648254 514.712646,310.936646 529.062012,316.572510 
	C529.348328,316.786072 529.634705,316.999634 530.295227,317.580566 
	C530.103943,318.690521 529.538513,319.433105 528.973022,320.175720 
	C528.973022,320.175720 528.555786,319.994080 528.184937,319.637329 
	C524.185913,318.378326 520.557800,317.476074 516.929626,316.573822 
	C516.516785,316.435120 516.103882,316.296448 515.019897,316.036804 
	C511.578339,315.992371 508.807922,316.068817 506.037506,316.145294 
	C505.279785,316.109161 504.522095,316.073029 503.027893,316.039673 
	C500.537872,316.402588 498.784363,316.762756 497.030853,317.122894 
	C496.574707,317.131104 496.118561,317.139343 494.995850,317.273499 
	C490.078674,319.198059 485.828033,320.996735 481.577393,322.795380 
	C480.453033,323.674164 479.328674,324.552948 477.788086,325.828247 
	C475.938049,328.496063 474.504242,330.767395 473.070435,333.038727 
	C473.070435,333.038727 472.999420,333.015289 472.712708,333.162537 
	C471.295441,335.211273 470.164856,337.112793 469.034271,339.014343 
	C468.665192,339.364258 468.296112,339.714203 467.566284,340.445984 
	C466.793488,341.547394 466.381439,342.266968 465.969360,342.986572 
	C464.421631,344.488892 462.873871,345.991211 460.798584,347.857208 
	C456.503876,348.877014 452.736633,349.533142 448.969421,350.189240 
	C447.841583,349.225006 446.713745,348.260803 445.273804,346.819824 
	C444.411896,345.700165 443.862091,345.057251 443.312256,344.414337 
	C440.216248,337.100677 435.081879,331.630310 428.225983,327.710022 
	C424.554657,325.610718 421.819733,325.393646 419.308960,329.901825 
	C416.663452,334.651978 413.223541,339.064697 409.581268,343.132935 
	C401.879150,351.735840 394.138397,351.811127 386.248291,343.527924 
	C382.129150,339.203491 376.958221,338.191406 371.605377,338.811676 
	C361.700623,339.959412 351.885590,341.859772 342.000305,343.205048 
	C335.255341,344.122986 328.386322,345.557739 321.697449,345.065887 
	C314.740631,344.554291 307.766144,342.489685 301.113434,340.194031 
	C295.629669,338.301727 295.338257,336.601593 297.835022,331.491058 
	C305.795959,315.196198 313.843842,298.943848 322.075256,282.049072 
	C323.433838,280.315063 324.530823,279.156281 325.725861,278.109406 
	C328.462341,275.712250 331.246704,273.369720 334.011627,271.005035 
	C336.916626,268.186523 339.821625,265.367981 343.146423,262.157227 
	C344.328857,260.823578 345.091461,259.882202 345.854065,258.940796 
	C347.446655,257.409790 349.039215,255.878769 351.085876,253.973785 
	C353.449738,251.481506 355.359528,249.363159 357.269318,247.244812 
	C357.269318,247.244827 357.050049,247.054077 357.449585,247.102234 
	C358.308655,246.497269 358.768188,245.844131 359.227722,245.191010 
	C359.227722,245.191010 359.063843,245.071640 359.439240,245.090271 
	C360.314880,244.457047 360.815094,243.805206 361.315338,243.153381 
	C361.864136,242.698822 362.412933,242.244263 363.372437,241.429550 
	C367.183136,237.376190 370.583099,233.682983 373.983093,229.989777 
	C373.983093,229.989777 374.000000,230.000122 374.302673,229.954102 
	C375.069183,229.271408 375.532990,228.634735 375.996796,227.998047 
	C375.996796,227.998047 376.000000,228.000000 376.323364,227.941803 
	C377.903473,226.424103 379.160248,224.964600 380.416992,223.505066 
	C380.416992,223.505066 380.407349,223.418961 380.746887,223.349930 
	C381.707062,222.513153 382.327728,221.745407 382.948364,220.977646 
	C383.545502,220.469543 384.142639,219.961456 385.170471,219.094940 
	C387.971741,216.140732 390.342285,213.544922 392.712799,210.949097 
	C393.137573,210.593613 393.562378,210.238129 394.410156,209.526672 
	C409.248322,194.486969 423.663513,179.803238 438.062744,165.135788 
	C436.764771,163.419022 435.871277,162.237244 434.970764,160.762634 
	C434.675842,160.123047 434.387909,159.776291 434.099976,159.429535 
	C433.725037,159.858536 433.350098,160.287552 432.783936,161.002838 
	C424.933868,169.130112 417.274963,176.971085 409.616028,184.812057 
	C405.460022,188.900742 401.304016,192.989441 396.683594,197.444260 
	C395.377991,198.824249 394.536774,199.838104 393.695526,200.851959 
	C391.166992,203.269958 388.638489,205.687958 385.658325,208.469452 
	C384.699219,209.520554 384.191772,210.208176 383.684326,210.895782 
	C378.972504,213.818893 374.260681,216.741989 368.944183,219.855057 
	C367.637817,219.870682 366.936127,219.696320 366.234436,219.521973 
	C366.826599,218.136398 367.116486,216.480515 368.068115,215.416443 
	C370.815552,212.344360 373.829620,209.510651 377.180664,206.213379 
	C378.733795,204.553482 379.845215,203.263535 380.956604,201.973602 
	C380.956604,201.973587 381.000000,202.000000 381.299500,201.925110 
	C382.376862,200.890503 383.154755,199.930786 383.932648,198.971069 
	C384.540710,198.489731 385.148804,198.008392 386.195801,197.182983 
	C388.071747,195.218063 389.508789,193.597183 390.945801,191.976303 
	C392.203705,190.822464 393.461609,189.668640 395.156738,188.148285 
	C396.691071,186.505264 397.788147,185.228806 398.885193,183.952347 
	C400.820801,182.134232 402.756409,180.316101 405.119019,178.144928 
	C406.175293,177.041046 406.804535,176.290207 407.433807,175.539352 
	C407.433807,175.539352 407.440979,175.446945 407.771820,175.351410 
	C408.701813,174.489899 409.300995,173.723938 409.900146,172.957977 
	C410.840485,172.146027 411.780823,171.334076 413.166504,170.153412 
	C415.057587,168.182526 416.503326,166.580368 417.949066,164.978210 
	C421.195923,161.815521 424.442749,158.652847 428.146606,155.088364 
	C430.712799,153.506927 432.822021,152.327271 434.931213,151.147614 
	C435.684479,152.065048 436.437744,152.982483 437.552917,154.348328 
	C441.449036,158.654144 444.983276,162.511551 448.882874,166.767715 
	C450.346222,164.909012 451.116425,163.930740 451.886658,162.952454 
	C454.484619,160.469223 457.082642,157.986008 460.201477,155.135513 
	C463.974976,152.819290 466.620544,153.847641 469.065460,156.352295 
	C470.299591,157.616592 471.719513,158.699539 473.055389,159.864502 
	C475.502441,162.475525 477.949493,165.086548 480.682953,168.147278 
	C481.316376,169.063751 481.663391,169.530487 482.010406,169.997223 
	C482.003723,170.757492 481.997009,171.517776 481.831940,172.903198 
	C478.359161,177.166733 475.073853,180.832245 471.717529,184.431503 
	C470.153381,186.108826 469.067352,187.614502 472.042755,188.897995 
	C472.531494,189.505310 473.020233,190.112625 473.738617,191.194824 
	C474.016479,192.127945 474.064697,192.586227 474.112915,193.044495 
	C473.816040,193.230972 473.519135,193.417450 472.829590,193.917572 
	C471.673431,195.173798 470.909973,196.116379 470.146515,197.058960 
	C460.529999,206.527527 450.913452,215.996078 440.861755,225.837158 
	C439.657806,227.156418 438.889008,228.103149 438.120178,229.049896 
	C430.516357,236.519104 422.912537,243.988297 414.865356,251.836243 
	C413.648285,253.157379 412.874481,254.099777 412.100708,255.042175 
	C407.833710,259.178284 403.566711,263.314423 398.868347,267.804138 
	C397.812775,268.908539 397.188568,269.659332 396.564362,270.410126 
	C396.564362,270.410126 396.515625,270.508545 396.173645,270.605499 
	C395.239166,271.476105 394.646606,272.249786 394.054077,273.023438 
	C387.458191,279.487335 380.862335,285.951233 373.823975,292.794800 
	C372.258759,294.451630 371.136017,295.728760 370.013245,297.005890 
	C369.731415,297.187286 369.449554,297.368683 368.784119,297.858337 
	C367.609192,299.114990 366.817871,300.063324 366.026520,301.011688 
	C364.108795,302.822937 362.191101,304.634216 359.831360,306.817810 
	C359.055908,308.144806 358.722473,309.099426 358.389038,310.054077 
	C357.734467,310.938629 357.079926,311.823181 355.869202,313.008728 
	C345.034637,318.453491 334.756195,323.597229 324.477783,328.740997 
	C323.778107,329.025238 323.078430,329.309479 321.837219,329.778748 
	C319.683441,330.884918 318.071198,331.806091 316.458954,332.727234 
	C315.999695,332.881836 315.540436,333.036407 314.569580,333.402069 
	C312.065552,334.706543 310.073181,335.799957 308.080780,336.893341 
	C308.301300,337.504974 308.521790,338.116608 308.742310,338.728210 
	C315.973358,337.312195 323.304932,336.276520 330.413971,334.398590 
	C343.998749,330.809998 357.456818,326.741821 370.967468,322.872681 
	C373.033234,322.928284 375.098969,322.983887 377.920959,323.139618 
	C383.469910,324.791565 388.262573,326.343353 393.055267,327.895172 
	C393.055267,327.895172 393.037048,327.979797 393.178101,328.270874 
	C395.053741,329.970917 396.788361,331.379852 398.923370,333.114044 
	C400.462921,331.191833 401.739746,329.597656 403.016571,328.003479 
	C403.016571,328.003479 403.289764,327.911133 403.635223,327.635864 
	C407.112701,323.635376 410.244751,319.910156 413.376801,316.184937 
	C413.376801,316.184937 413.768188,316.163055 414.215179,315.994171 
	C416.100616,315.188660 417.539093,314.552032 418.977539,313.915405 
	C420.709412,313.941010 422.441315,313.966614 424.873535,314.154694 
	C428.069244,315.071869 430.564606,315.826599 433.059937,316.581299 
	C433.420197,316.850616 433.780457,317.119934 434.591003,317.744141 
	C435.881836,318.536133 436.722321,318.973236 437.562836,319.410370 
	C437.562836,319.410370 437.726044,319.228241 437.799316,319.612732 
	C438.568207,320.361267 439.263824,320.725250 439.959412,321.089264 
	C441.440674,322.638763 442.921936,324.188263 444.746887,326.207947 
	C446.644989,328.619232 448.199463,330.560333 449.753906,332.501434 
	C449.753906,332.501434 449.742859,332.847961 449.885010,333.263062 
	C450.834198,335.038696 451.641235,336.399231 452.448273,337.759796 
z"/>
<path fill="#FBFBFB" opacity="1.000000" stroke="none" 
	d="
M163.270508,654.960388 
	C163.258224,658.780823 163.399796,662.117859 163.201828,665.434753 
	C162.794479,672.259766 158.054840,676.823059 151.204758,676.920654 
	C143.219101,677.034424 135.229080,677.040894 127.243683,676.917480 
	C119.772751,676.802002 115.090881,672.173340 115.055794,664.661987 
	C114.962532,644.694092 114.975792,624.725098 115.077530,604.757202 
	C115.115906,597.224854 119.747154,592.684448 127.282204,592.581116 
	C135.101685,592.473877 142.924683,592.481018 150.744461,592.576599 
	C158.700424,592.673828 163.208450,597.286255 163.253418,605.545471 
	C163.342224,621.852478 163.273972,638.160400 163.270508,654.960388 
z"/>
<path fill="#1F1F1F" opacity="1.000000" stroke="none" 
	d="
M409.978882,184.899307 
	C417.274963,176.971085 424.933868,169.130112 433.113464,161.085052 
	C434.082001,160.939163 434.529907,160.997314 434.977783,161.055466 
	C435.871277,162.237244 436.764771,163.419022 438.062744,165.135788 
	C423.663513,179.803238 409.248322,194.486969 394.500702,209.261368 
	C396.406769,206.224350 398.419678,202.899521 400.938782,200.017044 
	C404.370575,196.090149 408.250610,192.558701 411.815765,188.743103 
	C413.698822,186.727798 412.632172,185.536331 409.978882,184.899307 
z"/>
<path fill="#1F1F1F" opacity="1.000000" stroke="none" 
	d="
M370.696533,322.595215 
	C357.456818,326.741821 343.998749,330.809998 330.413971,334.398590 
	C323.304932,336.276520 315.973358,337.312195 308.742310,338.728210 
	C308.521790,338.116608 308.301300,337.504974 308.080780,336.893341 
	C310.073181,335.799957 312.065552,334.706543 314.436646,333.611816 
	C316.158936,334.151642 317.705536,335.428070 318.815155,335.121765 
	C331.680420,331.570221 344.437531,327.623749 357.320374,324.140991 
	C361.544373,322.999023 366.049164,322.895905 370.696533,322.595215 
z"/>
<path fill="#1F1F1F" opacity="1.000000" stroke="none" 
	d="
M529.008484,316.235718 
	C514.712646,310.936646 500.105316,309.648254 485.196320,314.082581 
	C482.657104,314.837799 480.212250,315.910217 477.350433,316.851929 
	C480.653107,314.976562 484.135681,312.267975 488.040558,311.344086 
	C500.951660,308.289307 513.808960,308.817444 526.233948,313.981812 
	C527.233826,314.397369 528.052246,315.249573 529.008484,316.235718 
z"/>
<path fill="#1F1F1F" opacity="1.000000" stroke="none" 
	d="
M324.873718,328.838745 
	C334.756195,323.597229 345.034637,318.453491 355.676941,313.279541 
	C354.086273,314.570618 352.255371,316.145660 350.155457,317.168274 
	C341.906219,321.185516 333.572235,325.028717 324.873718,328.838745 
z"/>
<path fill="#1F1F1F" opacity="1.000000" stroke="none" 
	d="
M466.717072,326.045288 
	C463.622925,330.385437 460.237427,334.774597 456.701630,339.039124 
	C455.432281,340.570129 453.817993,341.558411 452.656982,338.442444 
	C455.389526,335.880554 458.164459,333.713501 460.814240,331.402954 
	C462.750275,329.714844 464.521637,327.837891 466.717072,326.045288 
z"/>
<path fill="#1F1F1F" opacity="1.000000" stroke="none" 
	d="
M451.521729,162.918869 
	C451.116425,163.930740 450.346222,164.909012 448.882874,166.767715 
	C444.983276,162.511551 441.449036,158.654144 437.833374,154.457565 
	C439.321045,155.130341 440.896393,156.132797 442.457947,157.156265 
	C445.361786,159.059479 448.257629,160.974915 451.521729,162.918869 
z"/>
<path fill="#1F1F1F" opacity="1.000000" stroke="none" 
	d="
M472.072266,188.540161 
	C469.067352,187.614502 470.153381,186.108826 471.717529,184.431503 
	C475.073853,180.832245 478.359161,177.166733 481.899719,173.278152 
	C481.208038,175.049118 480.560181,177.258255 479.312897,179.050140 
	C477.101044,182.227737 474.525269,185.152023 472.072266,188.540161 
z"/>
<path fill="#1F1F1F" opacity="1.000000" stroke="none" 
	d="
M529.047363,320.511566 
	C529.538513,319.433105 530.103943,318.690521 530.566528,317.605713 
	C534.833252,317.610992 537.738098,319.401520 538.013550,325.504059 
	C534.448730,323.637146 531.785278,322.242279 529.047363,320.511566 
z"/>
<path fill="#1F1F1F" opacity="1.000000" stroke="none" 
	d="
M473.070160,159.494461 
	C471.719513,158.699539 470.299591,157.616592 469.065460,156.352295 
	C466.620544,153.847641 463.974976,152.819290 460.339020,154.829681 
	C462.500336,150.807251 468.674896,151.310898 471.843353,155.941589 
	C472.469788,156.857086 472.681793,158.056152 473.070160,159.494461 
z"/>
<path fill="#1F1F1F" opacity="1.000000" stroke="none" 
	d="
M333.658966,271.002686 
	C331.246704,273.369720 328.462341,275.712250 325.725861,278.109406 
	C324.530823,279.156281 323.433838,280.315063 322.067444,281.694641 
	C322.453094,280.381012 322.617340,278.245087 323.761292,277.318054 
	C326.711853,274.926941 330.095612,273.070404 333.658966,271.002686 
z"/>
<path fill="#1F1F1F" opacity="1.000000" stroke="none" 
	d="
M393.028229,327.540283 
	C388.262573,326.343353 383.469910,324.791565 378.355103,323.046539 
	C383.796570,321.622437 388.873444,322.764191 393.028229,327.540283 
z"/>
<path fill="#1F1F1F" opacity="1.000000" stroke="none" 
	d="
M373.636047,229.990128 
	C370.583099,233.682983 367.183136,237.376190 363.457336,241.171143 
	C366.517334,237.512085 369.903168,233.751282 373.636047,229.990128 
z"/>
<path fill="#1F1F1F" opacity="1.000000" stroke="none" 
	d="
M413.010742,316.135681 
	C410.244751,319.910156 407.112701,323.635376 403.660706,327.493958 
	C406.442047,323.780334 409.543365,319.933380 413.010742,316.135681 
z"/>
<path fill="#1F1F1F" opacity="1.000000" stroke="none" 
	d="
M481.980255,322.877991 
	C485.828033,320.996735 490.078674,319.198059 494.698425,317.450500 
	C490.839417,319.321259 486.611267,321.140961 481.980255,322.877991 
z"/>
<path fill="#1F1F1F" opacity="1.000000" stroke="none" 
	d="
M449.056976,350.566101 
	C452.736633,349.533142 456.503876,348.877014 460.651550,348.149231 
	C458.581055,352.387970 454.826874,353.292908 449.056976,350.566101 
z"/>
<path fill="#1F1F1F" opacity="1.000000" stroke="none" 
	d="
M402.653992,328.011292 
	C401.739746,329.597656 400.462921,331.191833 398.923370,333.114044 
	C396.788361,331.379852 395.053741,329.970917 393.215271,328.248718 
	C396.169952,328.121918 399.199402,331.507690 402.653992,328.011292 
z"/>
<path fill="#1F1F1F" opacity="1.000000" stroke="none" 
	d="
M392.353180,210.930359 
	C390.342285,213.544922 387.971741,216.140732 385.277710,218.814453 
	C385.339874,214.502609 387.780579,211.925507 392.353180,210.930359 
z"/>
<path fill="#1F1F1F" opacity="1.000000" stroke="none" 
	d="
M434.940765,150.797470 
	C432.822021,152.327271 430.712799,153.506927 428.273712,154.776184 
	C429.424896,148.168106 431.152649,147.078522 434.940765,150.797470 
z"/>
<path fill="#1F1F1F" opacity="1.000000" stroke="none" 
	d="
M517.057129,316.894226 
	C520.557800,317.476074 524.185913,318.378326 527.958496,319.615112 
	C524.463501,319.037964 520.824036,318.126312 517.057129,316.894226 
z"/>
<path fill="#1F1F1F" opacity="1.000000" stroke="none" 
	d="
M506.298645,316.421082 
	C508.807922,316.068817 511.578339,315.992371 514.694702,316.108063 
	C512.213684,316.432434 509.386749,316.564636 506.298645,316.421082 
z"/>
<path fill="#1F1F1F" opacity="1.000000" stroke="none" 
	d="
M356.912170,247.183563 
	C355.359528,249.363159 353.449738,251.481506 351.219849,253.667633 
	C352.784851,251.531052 354.669922,249.326675 356.912170,247.183563 
z"/>
<path fill="#1F1F1F" opacity="1.000000" stroke="none" 
	d="
M432.993042,316.254242 
	C430.564606,315.826599 428.069244,315.071869 425.302429,314.091003 
	C428.435425,311.593872 430.604492,314.052734 432.993042,316.254242 
z"/>
<path fill="#1F1F1F" opacity="1.000000" stroke="none" 
	d="
M473.419250,333.017700 
	C474.504242,330.767395 475.938049,328.496063 477.691467,326.124634 
	C476.596710,328.348572 475.182373,330.672607 473.419250,333.017700 
z"/>
<path fill="#1F1F1F" opacity="1.000000" stroke="none" 
	d="
M449.828735,332.112244 
	C448.199463,330.560333 446.644989,328.619232 445.042053,326.340454 
	C448.613129,326.207489 449.311096,328.919952 449.828735,332.112244 
z"/>
<path fill="#1F1F1F" opacity="1.000000" stroke="none" 
	d="
M470.833008,321.136658 
	C470.043182,322.745148 468.857941,324.296692 467.361572,325.957825 
	C466.952209,323.571442 466.853424,321.074982 470.833008,321.136658 
z"/>
<path fill="#1F1F1F" opacity="1.000000" stroke="none" 
	d="
M390.577362,191.954865 
	C389.508789,193.597183 388.071747,195.218063 386.313538,196.910934 
	C387.397919,195.299759 388.803406,193.616592 390.577362,191.954865 
z"/>
<path fill="#1F1F1F" opacity="1.000000" stroke="none" 
	d="
M497.280396,317.383911 
	C498.784363,316.762756 500.537872,316.402588 502.667236,316.169952 
	C501.205383,316.746613 499.367676,317.195770 497.280396,317.383911 
z"/>
<path fill="#1F1F1F" opacity="1.000000" stroke="none" 
	d="
M469.387085,338.992126 
	C470.164856,337.112793 471.295441,335.211273 472.735596,333.192078 
	C471.943420,335.039551 470.841644,337.004730 469.387085,338.992126 
z"/>
<path fill="#1F1F1F" opacity="1.000000" stroke="none" 
	d="
M417.581421,164.967529 
	C416.503326,166.580368 415.057587,168.182526 413.294373,169.865875 
	C414.389191,168.283676 415.801483,166.620270 417.581421,164.967529 
z"/>
<path fill="#1F1F1F" opacity="1.000000" stroke="none" 
	d="
M380.058807,223.379196 
	C379.160248,224.964600 377.903473,226.424103 376.322327,227.940231 
	C377.232178,226.415680 378.466370,224.834488 380.058807,223.379196 
z"/>
<path fill="#1F1F1F" opacity="1.000000" stroke="none" 
	d="
M316.850525,332.824341 
	C318.071198,331.806091 319.683441,330.884918 321.651001,329.999023 
	C320.418243,330.996674 318.830170,331.959045 316.850525,332.824341 
z"/>
<path fill="#1F1F1F" opacity="1.000000" stroke="none" 
	d="
M418.779297,313.651398 
	C417.539093,314.552032 416.100616,315.188660 414.316437,315.826355 
	C415.507477,315.014069 417.044250,314.200714 418.779297,313.651398 
z"/>
<path fill="#1F1F1F" opacity="1.000000" stroke="none" 
	d="
M370.385742,297.024536 
	C371.136017,295.728760 372.258759,294.451630 373.698975,293.105713 
	C372.930359,294.372345 371.844269,295.707733 370.385742,297.024536 
z"/>
<path fill="#1F1F1F" opacity="1.000000" stroke="none" 
	d="
M398.520050,183.934433 
	C397.788147,185.228806 396.691071,186.505264 395.278503,187.847855 
	C396.026947,186.581482 397.090942,185.249008 398.520050,183.934433 
z"/>
<path fill="#1F1F1F" opacity="1.000000" stroke="none" 
	d="
M380.585571,201.949966 
	C379.845215,203.263535 378.733795,204.553482 377.301880,205.900726 
	C378.059113,204.614151 379.136810,203.270233 380.585571,201.949966 
z"/>
<path fill="#1F1F1F" opacity="1.000000" stroke="none" 
	d="
M437.669678,319.023468 
	C436.722321,318.973236 435.881836,318.536133 434.918457,317.835602 
	C435.416534,317.147797 436.037445,316.723419 436.658356,316.299042 
	C437.031067,317.078217 437.403809,317.857391 437.669678,319.023468 
z"/>
<path fill="#1F1F1F" opacity="1.000000" stroke="none" 
	d="
M452.599731,337.389526 
	C451.641235,336.399231 450.834198,335.038696 450.043365,333.333588 
	C450.956757,334.332428 451.853943,335.675842 452.599731,337.389526 
z"/>
<path fill="#1F1F1F" opacity="1.000000" stroke="none" 
	d="
M394.075378,200.881989 
	C394.536774,199.838104 395.377991,198.824249 396.547668,197.731812 
	C396.069183,198.739487 395.262207,199.825745 394.075378,200.881989 
z"/>
<path fill="#1F1F1F" opacity="1.000000" stroke="none" 
	d="
M438.478821,229.063782 
	C438.889008,228.103149 439.657806,227.156418 440.731323,226.146667 
	C440.303162,227.081665 439.570282,228.079666 438.478821,229.063782 
z"/>
<path fill="#1F1F1F" opacity="1.000000" stroke="none" 
	d="
M470.502197,197.068268 
	C470.909973,196.116379 471.673431,195.173798 472.742615,194.172791 
	C472.318207,195.102127 471.588043,196.089859 470.502197,197.068268 
z"/>
<path fill="#1F1F1F" opacity="1.000000" stroke="none" 
	d="
M383.568665,198.952850 
	C383.154755,199.930786 382.376862,200.890503 381.286163,201.903534 
	C381.717133,200.949432 382.460907,199.942047 383.568665,198.952850 
z"/>
<path fill="#1F1F1F" opacity="1.000000" stroke="none" 
	d="
M366.185242,219.872375 
	C366.936127,219.696320 367.637817,219.870682 368.700256,220.104645 
	C368.131195,222.441711 367.156555,222.479309 366.185242,219.872375 
z"/>
<path fill="#1F1F1F" opacity="1.000000" stroke="none" 
	d="
M366.392426,301.032410 
	C366.817871,300.063324 367.609192,299.114990 368.710052,298.105469 
	C368.265808,299.047241 367.512054,300.050171 366.392426,301.032410 
z"/>
<path fill="#1F1F1F" opacity="1.000000" stroke="none" 
	d="
M345.496643,258.929016 
	C345.091461,259.882202 344.328857,260.823578 343.265991,261.842987 
	C343.690247,260.919739 344.414764,259.918488 345.496643,258.929016 
z"/>
<path fill="#1F1F1F" opacity="1.000000" stroke="none" 
	d="
M412.461334,255.055786 
	C412.874481,254.099777 413.648285,253.157379 414.725525,252.140747 
	C414.293304,253.067490 413.557617,254.068451 412.461334,255.055786 
z"/>
<path fill="#1F1F1F" opacity="1.000000" stroke="none" 
	d="
M382.571716,220.962280 
	C382.327728,221.745407 381.707062,222.513153 380.789917,223.354980 
	C381.060638,222.601685 381.627808,221.774307 382.571716,220.962280 
z"/>
<path fill="#1F1F1F" opacity="1.000000" stroke="none" 
	d="
M358.701752,309.988159 
	C358.722473,309.099426 359.055908,308.144806 359.707977,307.125305 
	C359.689240,308.014404 359.351868,308.968323 358.701752,309.988159 
z"/>
<path fill="#1F1F1F" opacity="1.000000" stroke="none" 
	d="
M394.431793,273.033630 
	C394.646606,272.249786 395.239166,271.476105 396.121643,270.623108 
	C395.877563,271.377136 395.343536,272.210480 394.431793,273.033630 
z"/>
<path fill="#1F1F1F" opacity="1.000000" stroke="none" 
	d="
M409.524963,172.947601 
	C409.300995,173.723938 408.701813,174.489899 407.818054,175.348328 
	C408.072235,174.606262 408.611023,173.771744 409.524963,172.947601 
z"/>
<path fill="#1F1F1F" opacity="1.000000" stroke="none" 
	d="
M396.908600,270.546021 
	C397.188568,269.659332 397.812775,268.908539 398.732269,268.110535 
	C398.435974,268.936157 397.844391,269.809052 396.908600,270.546021 
z"/>
<path fill="#1F1F1F" opacity="1.000000" stroke="none" 
	d="
M407.088318,175.410217 
	C406.804535,176.290207 406.175293,177.041046 405.248474,177.838013 
	C405.548187,177.016449 406.145508,176.148758 407.088318,175.410217 
z"/>
<path fill="#1F1F1F" opacity="1.000000" stroke="none" 
	d="
M476.070129,317.143250 
	C475.810791,317.745972 475.206390,318.288330 474.287537,318.837860 
	C474.557068,318.257629 475.141052,317.670258 476.070129,317.143250 
z"/>
<path fill="#1F1F1F" opacity="1.000000" stroke="none" 
	d="
M375.665924,227.998352 
	C375.532990,228.634735 375.069183,229.271408 374.297577,229.945572 
	C374.438232,229.321579 374.886658,228.660095 375.665924,227.998352 
z"/>
<path fill="#1F1F1F" opacity="1.000000" stroke="none" 
	d="
M482.242676,169.832062 
	C481.663391,169.530487 481.316376,169.063751 480.978851,168.301025 
	C481.483887,168.558990 481.979401,169.112930 482.242676,169.832062 
z"/>
<path fill="#1F1F1F" opacity="1.000000" stroke="none" 
	d="
M443.235168,344.781067 
	C443.862091,345.057251 444.411896,345.700165 444.995911,346.664978 
	C444.406067,346.373840 443.782074,345.760803 443.235168,344.781067 
z"/>
<path fill="#1F1F1F" opacity="1.000000" stroke="none" 
	d="
M466.330261,342.949677 
	C466.381439,342.266968 466.793488,341.547394 467.497772,340.695587 
	C467.423706,341.346527 467.057434,342.129669 466.330261,342.949677 
z"/>
<path fill="#1F1F1F" opacity="1.000000" stroke="none" 
	d="
M360.950134,243.132111 
	C360.815094,243.805206 360.314880,244.457047 359.502808,245.169220 
	C359.655640,244.523331 360.120270,243.817093 360.950134,243.132111 
z"/>
<path fill="#1F1F1F" opacity="1.000000" stroke="none" 
	d="
M358.869080,245.162750 
	C358.768188,245.844131 358.308655,246.497269 357.545349,247.211548 
	C357.664490,246.559982 358.087463,245.847229 358.869080,245.162750 
z"/>
<path fill="#1F1F1F" opacity="1.000000" stroke="none" 
	d="
M474.411011,193.031586 
	C474.064697,192.586227 474.016479,192.127945 474.005554,191.326019 
	C474.264923,191.661133 474.487000,192.339905 474.411011,193.031586 
z"/>
<path fill="#1F1F1F" opacity="1.000000" stroke="none" 
	d="
M473.085327,319.175812 
	C472.915283,319.853027 472.370941,320.482208 471.510742,321.171631 
	C471.700256,320.530548 472.205658,319.829163 473.085327,319.175812 
z"/>
<path fill="#1F1F1F" opacity="1.000000" stroke="none" 
	d="
M439.936462,320.728333 
	C439.263824,320.725250 438.568207,320.361267 437.745422,319.722504 
	C438.383331,319.754303 439.148438,320.060852 439.936462,320.728333 
z"/>
<path fill="#1F1F1F" opacity="1.000000" stroke="none" 
	d="
M384.058380,210.899078 
	C384.191772,210.208176 384.699219,209.520554 385.532379,208.767334 
	C385.382874,209.435272 384.907654,210.168823 384.058380,210.899078 
z"/>
<path fill="#E8E8E8" opacity="1.000000" stroke="none" 
	d="
M434.970764,160.762634 
	C434.529907,160.997314 434.082001,160.939163 433.304626,160.798782 
	C433.350098,160.287552 433.725037,159.858536 434.099976,159.429535 
	C434.387909,159.776291 434.675842,160.123047 434.970764,160.762634 
z"/>
</svg>